<svg width="82" height="80" viewBox="0 0 82 80" fill="none" xmlns="http://www.w3.org/2000/svg">
<path d="M57.59 3.24C57 2.99 56.41 2.75 55.81 2.52L54.74 2.38C51.53 1.94 48.45 1.53 45.74 0.11L44.65 0C47.7 1.88 51.23 2.36 54.65 2.82C55.64 3 56.62 3.08 57.59 3.24Z" fill="#639CFF"/>
<path d="M72.79 15.28C74.2607 20.0574 76.2527 24.6584 78.73 29C79.2322 29.8263 79.7797 30.6242 80.37 31.39L80.16 30.39C78.34 27.82 76 23.39 73.37 15.67C73.11 15.31 72.83 14.96 72.55 14.61L72.79 15.28Z" fill="#639CFF"/>
<path d="M80.81 38.79C78.36 37.65 74.69 34.94 71 24.7C70.0858 21.8499 68.2039 19.409 65.68 17.8C63.2768 16.3864 60.5947 15.5128 57.82 15.24C56.56 15.04 55.27 14.91 54.02 14.79C49.69 14.37 45.61 13.97 42.9 10.74C40.19 7.51 35.53 9.81 31 12L29.34 12.79C24.22 15.12 19.71 16.51 16.34 9.93C16.1003 9.46114 15.812 9.01872 15.48 8.61L14.79 9.17C15.0782 9.53416 15.3294 9.92609 15.54 10.34C17.25 13.66 19.4 15.34 22.13 15.6C24.65 15.8 27.37 14.67 29.72 13.6L31.4 12.81C35.81 10.69 39.98 8.68 42.19 11.32C45.19 14.83 49.6 15.32 53.91 15.69C55.15 15.81 56.43 15.94 57.66 16.13C64.38 17 68.34 19.81 70.13 25C74 35.57 77.85 38.4 80.44 39.61L81.04 39.83C81.04 39.51 81.04 39.2 81.04 38.89L80.81 38.79Z" fill="#639CFF"/>
<path d="M3.81 26.73C7.18 18.4 11.31 12.73 14.09 12.61C15.09 12.61 15.95 13.28 16.66 14.71C18.26 17.91 20.34 19.59 23.01 19.83C25.47 20.05 28.13 19.02 30.43 18.03L32.11 17.27C36.35 15.34 40.35 13.52 42.32 15.91C45.07 19.24 49.43 19.61 53.63 19.97C54.81 20.07 56.03 20.17 57.21 20.34C63.74 21.09 67.56 23.62 69.21 28.34C72.86 38.15 76.82 40.65 79.47 41.67C79.9712 41.8173 80.4826 41.9276 81 42C81 41.65 81.05 41.3 81.06 40.95C80.6677 40.8733 80.2803 40.7731 79.9 40.65C77.44 39.65 73.76 37.33 70.26 27.94C69.3303 25.2631 67.4615 23.014 65 21.61C62.63 20.3123 60.0132 19.5286 57.32 19.31C56.11 19.14 54.88 19.03 53.69 18.93C49.52 18.57 45.57 18.24 43.1 15.24C40.63 12.24 36.1 14.31 31.65 16.32L30 17.07C25 19.2 20.68 20.45 17.58 14.24C16.66 12.41 15.47 11.51 14.03 11.57C12.59 11.63 11.03 12.72 9.55 14.42C8.74333 15.4067 7.98333 16.4367 7.27 17.51C5.93011 19.6379 4.7534 21.8643 3.75 24.17C2.58245 27.0411 1.76653 30.0429 1.32 33.11C2.08 31.05 2.91 28.89 3.81 26.73Z" fill="#639CFF"/>
<path d="M0.999997 40.31C2.24087 36.8049 3.65596 33.364 5.24 30C9 22.06 12.88 17.13 15.42 17.11C16.32 17.11 17.12 17.8 17.77 19.11C21.04 25.84 26.16 24.44 31.13 22.43L32.81 21.72C36.87 19.97 40.71 18.32 42.44 20.46C45 23.65 49.26 24 53.37 24.26C54.49 24.34 55.65 24.43 56.77 24.57C63.11 25.2 66.77 27.46 68.33 31.7C71.8 40.76 75.81 43 78.53 43.81C79.2395 44.0003 79.9666 44.1176 80.7 44.16C80.7 43.77 80.8 43.37 80.84 42.98C80.1645 42.9391 79.4946 42.8319 78.84 42.66C76.36 41.87 72.69 39.83 69.43 31.27C68.5529 28.7662 66.7688 26.6824 64.43 25.43C62.0899 24.2472 59.5361 23.5466 56.92 23.37C55.77 23.23 54.6 23.14 53.46 23.06C49.46 22.77 45.63 22.49 43.39 19.74C41.15 16.99 36.65 18.8 32.39 20.65L30.73 21.36C28.61 22.22 26.18 23.11 24.06 22.9C21.94 22.69 20.22 21.32 18.91 18.62C18.03 16.82 16.91 15.91 15.48 15.91C13.76 15.91 11.79 17.36 9.63 20.2C7.52533 23.0951 5.71628 26.1939 4.23 29.45C3.04 31.93 1.97 34.45 1.04 36.84C1.04 37.51 0.989997 38.19 0.989997 38.84C0.919997 39.36 0.929997 39.83 0.999997 40.31Z" fill="#639CFF"/>
<path d="M71.72 21.47C70.7992 18.4332 68.874 15.7992 66.26 14C63.8439 12.4557 61.1083 11.4812 58.26 11.15C56.94 10.92 55.58 10.77 54.26 10.63C49.8 10.14 45.57 9.68 42.62 6.21C39.67 2.74 34.98 5.31 30.33 7.65C29.78 7.93 29.22 8.22 28.66 8.49C24.04 10.71 19.89 12.16 16.47 7.83L15.88 8.28C16.4931 9.15167 17.29 9.8783 18.2143 10.4087C19.1386 10.9391 20.168 11.2604 21.23 11.35C23.81 11.53 26.59 10.35 28.99 9.16L30.67 8.32C35.24 6 39.58 3.82999 42 6.71C45.15 10.4 49.72 10.91 54.13 11.39C55.43 11.53 56.78 11.68 58.07 11.91C64.98 12.91 69.07 16.03 70.98 21.71C74.84 32.63 78.51 36 80.98 37.5C80.98 37.2 80.98 36.9 80.98 36.59C78.63 35 75.29 31.55 71.72 21.47Z" fill="#639CFF"/>
<path d="M72.47 18.28C71.536 15.0717 69.5715 12.2602 66.88 10.28C64.4255 8.60953 61.6136 7.53753 58.67 7.15C57.29 6.89 55.87 6.71 54.5 6.54C49.88 5.98 45.5 5.45 42.33 1.75C39.33 -1.74 34.33 0.869997 29.6 3.4L27.94 4.28C24.61 5.97 21.5 7.28 18.69 6.28L18.07 6.7C21.2 7.98 24.66 6.57 28.21 4.77L29.88 3.89C34.65 1.36 39.16 -1.03 41.88 2.1C45.23 5.97 49.88 6.54 54.43 7.1C55.8 7.27 57.21 7.44 58.58 7.71C65.67 8.86 69.9 12.28 71.92 18.47C75.38 28.55 78.53 32.74 80.92 34.81C80.92 34.5 80.86 34.2 80.82 33.9C78.54 31.74 75.66 27.55 72.47 18.28Z" fill="#639CFF"/>
<path d="M69.88 62C66.2 61.92 64.27 61.08 63.45 59.18C62.63 57.28 59.52 56.27 53.51 56.32C52.69 56.32 51.86 56.32 51.06 56.32C49.6597 56.3707 48.2578 56.3473 46.86 56.25C45.41 56.11 45.17 55.79 45.16 55.79C44.03 54.2 41.37 54.79 37.69 55.68C35.6224 56.2397 33.5062 56.6014 31.37 56.76C28.82 56.76 28.47 55.86 28.37 55.51C28.2217 55.0802 27.9714 54.6928 27.6405 54.381C27.3095 54.0692 26.9079 53.8424 26.47 53.72C25.2 53.36 23.47 53.72 21.31 54.86C19.3121 55.9272 17.4144 57.1722 15.64 58.58C13.4772 60.2531 11.4012 62.0354 9.42 63.92C9.9 64.55 10.42 65.18 10.92 65.78C12.8883 63.906 14.951 62.1337 17.1 60.47C21.59 57 24.7 55.7 25.77 56C25.8512 56.0204 25.9251 56.063 25.9834 56.123C26.0417 56.1831 26.0821 56.2582 26.1 56.34C26.82 58.25 28.61 59.18 31.42 59.13C33.7214 58.9765 36.0023 58.5981 38.23 58C39.5 57.7 40.71 57.42 41.68 57.28C42.2042 57.1691 42.7458 57.1691 43.27 57.28C44.49 58.85 47.41 58.8 51.1 58.73C51.89 58.73 52.71 58.73 53.51 58.73C60.41 58.66 61.17 59.99 61.23 60.14C63 64.2 68 64.31 69.84 64.35C70.48 64.35 71.32 64.35 72.32 64.27C72.96 63.44 73.58 62.58 74.16 61.7C72.7406 61.885 71.3114 61.9852 69.88 62Z" fill="#639CFF"/>
<path d="M29.1 71.39C30.03 72.71 32.36 72.59 33.54 72.53C35.36 72.44 37.6 72.1 39.54 71.81C40.9468 71.5683 42.3655 71.4014 43.79 71.31C44.61 71.84 46.18 71.83 51.04 71.64C53.56 71.53 57.69 71.37 58.85 71.64C59.45 72.5 60.64 73 62.74 73.22C63.982 72.3793 65.1772 71.4713 66.32 70.5H64.93C62.19 70.45 61.37 70.08 61.19 69.97C60.64 68.97 59.19 68.69 56.94 68.64C55.21 68.59 53.05 68.64 50.94 68.77C49.0649 68.8774 47.1851 68.8774 45.31 68.77C44.45 68.13 42.85 68.37 39.14 68.92C37.49 69.16 35.62 69.44 34.07 69.56C33.1617 69.6951 32.2383 69.6951 31.33 69.56C31.1268 69.2207 30.8275 68.9492 30.47 68.78C29.58 68.35 28.22 68.42 25.92 68.99C23.9526 69.5095 22.0133 70.1304 20.11 70.85C19.17 71.2 18.25 71.55 17.38 71.85C18.29 72.54 19.22 73.19 20.18 73.85L21.09 73.51C25.91 71.8 28.29 71.37 29.1 71.39Z" fill="#639CFF"/>
<path d="M62.71 62.79C62 61 59.07 60.3 53.1 60.43C52.3 60.43 51.49 60.43 50.71 60.43C49.34 60.43 48.04 60.5 47.01 60.43C46.4304 60.4496 45.8527 60.3545 45.31 60.15C44.31 58.79 41.99 59.26 38.21 60.04C36.1951 60.5166 34.1452 60.8309 32.08 60.98C31 60.98 29.67 60.9 29.42 60.22C29.2922 59.85 29.0802 59.5148 28.8008 59.2406C28.5215 58.9665 28.1823 58.7609 27.81 58.64C25.81 57.97 22.22 59.28 17.1 62.54C15.02 63.85 13.05 65.27 11.51 66.43C12.08 67.06 12.66 67.68 13.26 68.28C14.73 67.19 16.54 65.89 18.46 64.68C20.2656 63.5101 22.1734 62.506 24.16 61.68C26.3 60.83 26.96 61.08 27.03 61.11C27.65 62.8 29.37 63.61 32.14 63.54C34.3529 63.3801 36.5497 63.0457 38.71 62.54C40.2479 62.1444 41.8233 61.9131 43.41 61.85C44.53 63.12 47.17 63.05 50.77 62.95L53.13 63C59.25 62.87 60.28 63.75 60.38 63.86C61.89 67.28 66.64 67.31 68.66 67.32H69.76C70.56 66.46 71.33 65.57 72.05 64.64C70.86 64.74 69.72 64.8 68.65 64.81C66.3 64.73 63.46 64.49 62.71 62.79Z" fill="#639CFF"/>
<path d="M75.68 49.24C73.02 48.8 69.68 47.52 67.19 41.45C65.81 37.91 62 36 55.62 35.67C54.62 35.59 53.62 35.55 52.62 35.51C49.03 35.38 45.62 35.25 44.11 33.27C42.29 30.91 38.39 32.27 34.26 33.76L32.63 34.34C30.723 35.1018 28.6832 35.4757 26.63 35.44C24.77 35.23 23.48 34.17 22.56 32.11C22.4053 31.7577 22.2143 31.4226 21.99 31.11C22.9812 32.0418 24.2553 32.6155 25.61 32.74C27.86 32.99 30.34 32.19 32.5 31.43L34.17 30.8C37.73 29.45 41.4 28.05 42.7 29.7C44.89 32.48 48.75 32.7 52.83 32.87C53.83 32.87 54.9 32.97 55.93 33.07C58.2055 33.1544 60.4475 33.6455 62.55 34.52C63.457 34.8904 64.2793 35.4413 64.9669 36.1392C65.6546 36.8371 66.1931 37.6675 66.55 38.58C69.55 46.19 73.67 47.85 76.48 48.43C77.6036 48.6138 78.7457 48.6575 79.88 48.56C80 48.05 80.12 47.56 80.22 47.02C79.0789 47.1875 77.919 47.1808 76.78 47C74.09 46.4 70.67 44.87 68 38C66.51 34.11 62.62 32 56.1 31.54C55.04 31.45 53.98 31.39 52.94 31.34C49.21 31.16 45.69 30.98 43.94 28.74C43.01 27.57 41.53 27.18 39.4 27.55C37.4494 27.9849 35.5417 28.594 33.7 29.37L32 30C30 30.7 27.72 31.44 25.78 31.23C23.84 31.02 22.41 29.84 21.36 27.55C20.58 25.9 19.5 25 18.14 25C14.14 24.79 9.39 31.91 6.9 36.16C4.94243 39.4937 3.18273 42.9396 1.63 46.48C1.78 47.31 1.96 48.13 2.17 48.95C3.91154 44.8259 5.91565 40.8177 8.17 36.95C12 30.33 15.8 26.33 18.06 26.45C18.35 26.45 19.21 26.45 19.98 28.18C20.3153 28.9306 20.7382 29.6388 21.24 30.29C20.7537 29.8751 20.1476 29.6263 19.51 29.58C15.68 29.27 10.84 35.74 8.31 39.58C6.14549 42.8975 4.18518 46.3439 2.44 49.9C2.66 50.66 2.9 51.42 3.15 52.17C5.06633 48.1335 7.24777 44.2283 9.68 40.48C13.54 34.57 17.26 31.01 19.38 31.18C19.63 31.18 20.38 31.26 21.05 32.73C21.3578 33.4435 21.7543 34.1155 22.23 34.73C21.8249 34.4717 21.367 34.3077 20.89 34.25C19.36 34.07 17.48 34.96 15.3 36.89C13.2326 38.7909 11.3692 40.9024 9.74 43.19C7.44429 46.3364 5.3469 49.6227 3.46 53.03C3.72 53.76 4.01 54.47 4.31 55.18C6.35046 51.3889 8.64573 47.7405 11.18 44.26C12.7356 42.083 14.5117 40.0724 16.48 38.26C18.21 36.73 19.71 35.94 20.69 36.06C20.91 36.06 21.57 36.16 22.11 37.41C22.4056 38.134 22.8103 38.8085 23.31 39.41C22.9991 39.2372 22.6608 39.1188 22.31 39.06C20.82 38.84 19.02 39.57 16.81 41.31C14.7583 42.9935 12.8851 44.8834 11.22 46.95C8.8518 49.8086 6.66741 52.8147 4.68 55.95C5 56.64 5.33 57.32 5.68 57.95C7.79387 54.5256 10.1323 51.2451 12.68 48.13C16.53 43.52 20.18 40.69 22 41C22.32 41 22.78 41.22 23.16 42.12C23.4601 42.877 23.8974 43.5719 24.45 44.17C24.2049 44.0522 23.9463 43.9649 23.68 43.91C22.25 43.64 20.48 44.25 18.27 45.78C16.2408 47.2589 14.3618 48.9336 12.66 50.78C10.2893 53.3093 8.07523 55.981 6.03 58.78C6.39 59.45 6.77 60.1 7.17 60.78C9.32352 57.8064 11.6614 54.9709 14.17 52.29C18.06 48.19 21.64 45.74 23.29 46.05C23.55 46.05 23.9 46.25 24.17 46.93C24.4986 47.7267 25.0088 48.4355 25.66 49C25.4617 48.9049 25.2539 48.8311 25.04 48.78C22.04 48.08 17.46 51.58 14.12 54.62C11.8109 56.7338 9.624 58.9775 7.57 61.34C7.99 61.99 8.43 62.62 8.88 63.24C10.9873 60.7764 13.2379 58.439 15.62 56.24C20.39 51.89 23.4 50.65 24.53 50.92C24.74 50.97 24.96 51.08 25.14 51.54C26.88 55.94 32.29 54.68 35.52 53.92L37.11 53.52C38.64 53.13 40.11 52.77 41.26 52.59C41.8821 52.4213 42.5379 52.4213 43.16 52.59C44.5 54.4 47.7 54.38 51.39 54.36H53.91C56.12 54.36 61.36 54.57 62.12 56.36C63.97 60.66 68.06 61.36 70.98 61.44C72.1084 61.4569 73.2369 61.4102 74.36 61.3C74.88 60.51 75.36 59.7 75.82 58.87C74.2353 59.1128 72.6331 59.2232 71.03 59.2C68.37 59.09 65.47 58.56 64.15 55.49C63.15 53.19 59.93 52.11 53.89 52.09H51.39C48.82 52.09 45.62 52.09 44.96 51.23C43.71 49.51 40.56 50.31 36.57 51.32C36.06 51.45 35.57 51.59 35.01 51.71C30.63 52.71 28.09 52.88 27.22 50.71C27.052 50.2566 26.7895 49.8442 26.45 49.5C29 51 32.56 50 35 49.42L36.58 49C38.0894 48.5371 39.6256 48.1664 41.18 47.89C42.76 47.68 43.05 48.01 43.08 48.05C44.58 50.05 47.88 50.05 51.69 50.05C52.55 50.05 53.43 50.05 54.29 50.05C57.78 50.05 62.12 50.61 62.99 52.71C65.08 57.64 69.19 58.46 72.11 58.65C73.4191 58.6995 74.7301 58.6426 76.03 58.48C76.44 57.73 76.82 56.97 77.18 56.2H77.1C75.4868 56.488 73.8478 56.6053 72.21 56.55C69.49 56.38 66.5 55.68 64.89 51.89C64.29 50.41 62.89 49.34 60.65 48.7C58.5886 48.1983 56.4713 47.963 54.35 48H51.7C48.7 48 45.63 48 44.76 46.8C43.37 44.9 40 45.85 36 47L34.42 47.44C29.85 48.61 27.17 48.74 26.08 46.06C25.9329 45.7019 25.7378 45.3655 25.5 45.06C28.18 46.7 31.88 45.66 34.37 44.96L36 44.41C38.65 43.6 42.27 42.49 43 43.41C44.67 45.62 48.23 45.67 52 45.73C52.89 45.73 53.81 45.73 54.71 45.8C59.97 45.94 63.06 47.06 63.89 49.12C64.5804 51.0731 65.8422 52.7735 67.5113 54.0003C69.1804 55.2272 71.1799 55.9239 73.25 56C74.6253 56.0813 76.0052 56.0277 77.37 55.84C77.49 55.58 77.61 55.31 77.72 55.05C77.91 54.61 78.09 54.17 78.26 53.72H78.16C76.5873 54.0337 74.9805 54.1413 73.38 54.04C71.6705 53.9934 70.0156 53.4281 68.635 52.4189C67.2544 51.4098 66.2133 50.0047 65.65 48.39C64.49 45.52 60.92 44.03 54.74 43.86C53.81 43.86 52.88 43.8 51.98 43.79C48.7 43.79 45.61 43.69 44.51 42.24C42.99 40.24 39.51 41.24 35.41 42.52L33.81 43C29.06 44.35 26.23 44.47 24.9 41.31C24.7672 40.981 24.596 40.6689 24.39 40.38C27.23 42.38 31.14 41.16 33.74 40.38L35.38 39.84C38.47 38.84 41.97 37.67 42.87 38.84C44.71 41.23 48.36 41.33 52.23 41.43C53.16 41.43 54.12 41.43 55.06 41.54C60.58 41.77 63.74 43.08 64.72 45.54C67.29 51.77 71.41 52.97 74.29 53.33C75.6493 53.4534 77.0183 53.4198 78.37 53.23L78.67 52.42C78.8 52.04 78.92 51.67 79.04 51.29C77.5353 51.6082 75.991 51.6958 74.46 51.55C71.83 51.22 68.53 50.16 66.35 44.86C65.07 41.66 61.35 39.97 55.1 39.71C54.1 39.65 53.16 39.63 52.22 39.6C48.79 39.51 45.55 39.43 44.22 37.71C42.55 35.52 38.76 36.77 34.75 38.09L33.13 38.62C31.2842 39.3168 29.3226 39.6561 27.35 39.62C26.5083 39.5339 25.71 39.2043 25.0529 38.6715C24.3957 38.1386 23.9082 37.4257 23.65 36.62C23.5169 36.3096 23.3563 36.0117 23.17 35.73C24.0825 36.4479 25.1837 36.8855 26.34 36.99C28.6307 37.062 30.9117 36.6603 33.04 35.81L34.7 35.23C38.09 34.02 41.61 32.77 42.7 34.23C44.7 36.82 48.47 36.96 52.44 37.11C53.44 37.11 54.44 37.19 55.44 37.26C61.15 37.58 64.44 39.13 65.58 42.01C68.38 48.93 72.49 50.34 75.34 50.81C76.5656 50.9563 77.8043 50.9563 79.03 50.81H79.17C79.34 50.24 79.5 49.65 79.66 49.07C78.3496 49.328 77.0076 49.3853 75.68 49.24Z" fill="#639CFF"/>
<path d="M41 80C45.3895 80.0008 49.7463 79.2465 53.88 77.77C46.05 77.77 38.14 78.05 30.3 78.48C33.7767 79.4909 37.3793 80.0027 41 80Z" fill="#639CFF"/>
<path d="M60.18 73.36C59.44 72.7 58.03 72.72 56.18 72.75C54.33 72.78 52.35 72.89 50.3 72.99C48.25 73.09 45.88 73.22 45.13 73.17C44.4108 72.9866 43.6606 72.9593 42.93 73.09C42.02 73.17 40.79 73.32 39.49 73.47C37.0012 73.8254 34.4934 74.0324 31.98 74.09C31.4354 73.7261 30.7823 73.5602 30.13 73.62C29.372 73.6593 28.6172 73.7462 27.87 73.88C26.43 74.11 24.5 74.51 22.12 75.07C23.5305 75.8527 24.9864 76.5506 26.48 77.16C27.7205 76.8774 28.9809 76.6902 30.25 76.6C31.03 77.17 32.4 77.14 34.13 77.02C35.86 76.9 37.95 76.65 39.84 76.43C41.45 76.24 43.43 76.01 44.11 76C44.8857 76.1846 45.6872 76.2353 46.48 76.15C47.54 76.15 48.95 76.05 50.48 75.97C53.01 75.84 57.12 75.63 58.34 75.77H58.41C59.7865 75.0847 61.1221 74.32 62.41 73.48C61.6645 73.5133 60.9176 73.4731 60.18 73.36Z" fill="#639CFF"/>
<path d="M67.49 67.6C63.37 67.6 62.22 66.99 61.99 66.46C61.44 65.2 59.74 64.86 58.15 64.69C56.3341 64.5382 54.5105 64.5014 52.69 64.58L50.32 64.66C48.6778 64.7896 47.0271 64.7628 45.39 64.58C44.45 63.58 42.46 63.89 38.71 64.58C36.888 64.937 35.0489 65.2006 33.2 65.37C31.09 65.51 30.55 65.16 30.47 65.1C30.3589 64.8006 30.1855 64.5282 29.9615 64.3007C29.7374 64.0731 29.4676 63.8957 29.17 63.78C28.53 63.52 26.58 62.73 18.61 66.78C17 67.59 15.44 68.44 14.09 69.21C14.78 69.86 15.5 70.49 16.23 71.09C17.34 70.47 18.56 69.81 19.81 69.18C25.04 66.56 27.39 66.18 28.04 66.28C29.27 69.02 34.3 68.13 39.17 67.28C40.6265 66.9712 42.1039 66.7707 43.59 66.68C44.59 67.59 46.52 67.56 50.42 67.42L52.76 67.34C57.86 67.18 59.29 67.66 59.61 67.8C60.67 69.89 63.54 70.31 66.61 70.36C67.61 69.49 68.61 68.57 69.49 67.61C68.9 67.56 68.21 67.59 67.49 67.6Z" fill="#639CFF"/>
<path d="M6.7 33.36C10.47 26.18 14.3 21.74 16.7 21.74C17.55 21.74 18.26 22.38 18.85 23.64C20.23 26.57 22.15 28.13 24.71 28.4C27.03 28.64 29.58 27.77 31.78 26.93L33.46 26.26C37.35 24.68 41.02 23.19 42.54 25.09C44.91 28.09 48.87 28.3 53.05 28.56C54.12 28.62 55.23 28.69 56.3 28.81C62.46 29.32 65.98 31.32 67.39 35.11C70.64 43.44 74.69 45.35 77.46 46.11C78.3931 46.3081 79.3464 46.3954 80.3 46.37C80.39 45.92 80.46 45.47 80.53 45.02C79.5977 45.0704 78.6628 44.9964 77.75 44.8C75.27 44.16 71.63 42.4 68.62 34.68C67.03 30.41 63.03 28.07 56.39 27.51C55.29 27.39 54.17 27.32 53.09 27.26C49.2 27.02 45.54 26.79 43.54 24.26C42.54 23.02 41 22.61 38.81 23.02C36.8156 23.4964 34.8703 24.1593 33 25L31.35 25.66C29.29 26.44 26.93 27.26 24.9 27.04C22.87 26.82 21.29 25.55 20.11 23.04C19.29 21.3 18.17 20.4 16.78 20.37H16.7C15.04 20.37 13.11 21.67 10.97 24.23C8.86985 26.8605 7.04372 29.6986 5.52 32.7C3.87189 35.8108 2.38655 39.0051 1.07 42.27C1.15 43.21 1.26 44.14 1.4 45.06C2.93514 41.0592 4.70488 37.1524 6.7 33.36Z" fill="#639CFF"/>
</svg>
